  0
SECTION
  2
ENTITIES
  0
POLYLINE
  8
HAU
 66
1
 70
9
  0
VERTEX
  8
HAU
 10
290200.92
 20
273059.02
 30
0.00
 70
32
  0
VERTEX
  8
HAU
 10
290203.12
 20
273060.06
 30
0.00
 70
32
  0
VERTEX
  8
HAU
 10
290208.36
 20
273049.05
 30
0.00
 70
32
  0
VERTEX
  8
HAU
 10
290206.16
 20
273048.01
 30
0.00
 70
32
  0
SEQEND
  8
HAU
  0
3DFACE
  8
HAU
 10
290206.16
 20
273048.01
 30
0.00
 11
290200.92
 21
273059.02
 31
0.00
 12
290200.92
 22
273059.02
 32
0.00
 13
290206.16
 23
273048.01
 33
0.00
  0
3DFACE
  8
HAU
 10
290200.92
 20
273059.02
 30
0.00
 11
290203.12
 21
273060.06
 31
0.00
 12
290203.12
 22
273060.06
 32
0.00
 13
290200.92
 23
273059.02
 33
0.00
  0
3DFACE
  8
HAU
 10
290203.12
 20
273060.06
 30
0.00
 11
290208.36
 21
273049.05
 31
0.00
 12
290208.36
 22
273049.05
 32
0.00
 13
290203.12
 23
273060.06
 33
0.00
  0
3DFACE
  8
HAU
 10
290208.36
 20
273049.05
 30
0.00
 11
290206.16
 21
273048.01
 31
0.00
 12
290206.16
 22
273048.01
 32
0.00
 13
290208.36
 23
273049.05
 33
0.00
  0
3DFACE
  8
HAU
 10
290200.92
 20
273059.02
 30
0.00
 11
290203.12
 21
273060.06
 31
0.00
 12
290208.36
 22
273049.05
 32
0.00
 13
290208.36
 23
273049.05
 33
0.00
 70
15
  0
3DFACE
  8
HAU
 10
290208.36
 20
273049.05
 30
0.00
 11
290206.16
 21
273048.01
 31
0.00
 12
290200.92
 22
273059.02
 32
0.00
 13
290200.92
 23
273059.02
 33
0.00
 70
15
  0
POLYLINE
  8
HAU
 66
1
 70
9
  0
VERTEX
  8
HAU
 10
290196.00
 20
273056.68
 30
0.00
 70
32
  0
VERTEX
  8
HAU
 10
290198.21
 20
273057.73
 30
0.00
 70
32
  0
VERTEX
  8
HAU
 10
290203.45
 20
273046.72
 30
0.00
 70
32
  0
VERTEX
  8
HAU
 10
290201.25
 20
273045.67
 30
0.00
 70
32
  0
SEQEND
  8
HAU
  0
3DFACE
  8
HAU
 10
290201.25
 20
273045.67
 30
0.00
 11
290196.00
 21
273056.68
 31
0.00
 12
290196.00
 22
273056.68
 32
0.00
 13
290201.25
 23
273045.67
 33
0.00
  0
3DFACE
  8
HAU
 10
290196.00
 20
273056.68
 30
0.00
 11
290198.21
 21
273057.73
 31
0.00
 12
290198.21
 22
273057.73
 32
0.00
 13
290196.00
 23
273056.68
 33
0.00
  0
3DFACE
  8
HAU
 10
290198.21
 20
273057.73
 30
0.00
 11
290203.45
 21
273046.72
 31
0.00
 12
290203.45
 22
273046.72
 32
0.00
 13
290198.21
 23
273057.73
 33
0.00
  0
3DFACE
  8
HAU
 10
290203.45
 20
273046.72
 30
0.00
 11
290201.25
 21
273045.67
 31
0.00
 12
290201.25
 22
273045.67
 32
0.00
 13
290203.45
 23
273046.72
 33
0.00
  0
3DFACE
  8
HAU
 10
290196.00
 20
273056.68
 30
0.00
 11
290198.21
 21
273057.73
 31
0.00
 12
290203.45
 22
273046.72
 32
0.00
 13
290203.45
 23
273046.72
 33
0.00
 70
15
  0
3DFACE
  8
HAU
 10
290203.45
 20
273046.72
 30
0.00
 11
290201.25
 21
273045.67
 31
0.00
 12
290196.00
 22
273056.68
 32
0.00
 13
290196.00
 23
273056.68
 33
0.00
 70
15
  0
POLYLINE
  8
HAU
 66
1
 70
9
  0
VERTEX
  8
HAU
 10
290204.57
 20
273043.87
 30
0.00
 70
32
  0
VERTEX
  8
HAU
 10
290206.16
 20
273040.53
 30
0.00
 70
32
  0
VERTEX
  8
HAU
 10
290204.34
 20
273039.66
 30
0.00
 70
32
  0
VERTEX
  8
HAU
 10
290202.75
 20
273043.01
 30
0.00
 70
32
  0
SEQEND
  8
HAU
  0
3DFACE
  8
HAU
 10
290202.75
 20
273043.01
 30
0.00
 11
290204.57
 21
273043.87
 31
0.00
 12
290204.57
 22
273043.87
 32
0.00
 13
290202.75
 23
273043.01
 33
0.00
  0
3DFACE
  8
HAU
 10
290204.57
 20
273043.87
 30
0.00
 11
290206.16
 21
273040.53
 31
0.00
 12
290206.16
 22
273040.53
 32
0.00
 13
290204.57
 23
273043.87
 33
0.00
  0
3DFACE
  8
HAU
 10
290206.16
 20
273040.53
 30
0.00
 11
290204.34
 21
273039.66
 31
0.00
 12
290204.34
 22
273039.66
 32
0.00
 13
290206.16
 23
273040.53
 33
0.00
  0
3DFACE
  8
HAU
 10
290204.34
 20
273039.66
 30
0.00
 11
290202.75
 21
273043.01
 31
0.00
 12
290202.75
 22
273043.01
 32
0.00
 13
290204.34
 23
273039.66
 33
0.00
  0
3DFACE
  8
HAU
 10
290204.57
 20
273043.87
 30
0.00
 11
290206.16
 21
273040.53
 31
0.00
 12
290204.34
 22
273039.66
 32
0.00
 13
290204.34
 23
273039.66
 33
0.00
 70
15
  0
3DFACE
  8
HAU
 10
290204.34
 20
273039.66
 30
0.00
 11
290202.75
 21
273043.01
 31
0.00
 12
290204.57
 22
273043.87
 32
0.00
 13
290204.57
 23
273043.87
 33
0.00
 70
15
  0
POLYLINE
  8
HAU
 66
1
 70
9
  0
VERTEX
  8
HAU
 10
290206.67
 20
273039.56
 30
0.00
 70
32
  0
VERTEX
  8
HAU
 10
290207.20
 20
273038.45
 30
0.00
 70
32
  0
VERTEX
  8
HAU
 10
290205.30
 20
273037.54
 30
0.00
 70
32
  0
VERTEX
  8
HAU
 10
290204.78
 20
273038.65
 30
0.00
 70
32
  0
SEQEND
  8
HAU
  0
3DFACE
  8
HAU
 10
290204.78
 20
273038.65
 30
0.00
 11
290206.67
 21
273039.56
 31
0.00
 12
290206.67
 22
273039.56
 32
0.00
 13
290204.78
 23
273038.65
 33
0.00
  0
3DFACE
  8
HAU
 10
290206.67
 20
273039.56
 30
0.00
 11
290207.20
 21
273038.45
 31
0.00
 12
290207.20
 22
273038.45
 32
0.00
 13
290206.67
 23
273039.56
 33
0.00
  0
3DFACE
  8
HAU
 10
290207.20
 20
273038.45
 30
0.00
 11
290205.30
 21
273037.54
 31
0.00
 12
290205.30
 22
273037.54
 32
0.00
 13
290207.20
 23
273038.45
 33
0.00
  0
3DFACE
  8
HAU
 10
290205.30
 20
273037.54
 30
0.00
 11
290204.78
 21
273038.65
 31
0.00
 12
290204.78
 22
273038.65
 32
0.00
 13
290205.30
 23
273037.54
 33
0.00
  0
3DFACE
  8
HAU
 10
290206.67
 20
273039.56
 30
0.00
 11
290207.20
 21
273038.45
 31
0.00
 12
290205.30
 22
273037.54
 32
0.00
 13
290205.30
 23
273037.54
 33
0.00
 70
15
  0
3DFACE
  8
HAU
 10
290205.30
 20
273037.54
 30
0.00
 11
290204.78
 21
273038.65
 31
0.00
 12
290206.67
 22
273039.56
 32
0.00
 13
290206.67
 23
273039.56
 33
0.00
 70
15
  0
POLYLINE
  8
HAU
 66
1
 70
9
  0
VERTEX
  8
HAU
 10
290211.58
 20
273041.89
 30
0.00
 70
32
  0
VERTEX
  8
HAU
 10
290212.11
 20
273040.78
 30
0.00
 70
32
  0
VERTEX
  8
HAU
 10
290210.21
 20
273039.88
 30
0.00
 70
32
  0
VERTEX
  8
HAU
 10
290209.69
 20
273040.99
 30
0.00
 70
32
  0
SEQEND
  8
HAU
  0
3DFACE
  8
HAU
 10
290209.69
 20
273040.99
 30
0.00
 11
290211.58
 21
273041.89
 31
0.00
 12
290211.58
 22
273041.89
 32
0.00
 13
290209.69
 23
273040.99
 33
0.00
  0
3DFACE
  8
HAU
 10
290211.58
 20
273041.89
 30
0.00
 11
290212.11
 21
273040.78
 31
0.00
 12
290212.11
 22
273040.78
 32
0.00
 13
290211.58
 23
273041.89
 33
0.00
  0
3DFACE
  8
HAU
 10
290212.11
 20
273040.78
 30
0.00
 11
290210.21
 21
273039.88
 31
0.00
 12
290210.21
 22
273039.88
 32
0.00
 13
290212.11
 23
273040.78
 33
0.00
  0
3DFACE
  8
HAU
 10
290210.21
 20
273039.88
 30
0.00
 11
290209.69
 21
273040.99
 31
0.00
 12
290209.69
 22
273040.99
 32
0.00
 13
290210.21
 23
273039.88
 33
0.00
  0
3DFACE
  8
HAU
 10
290211.58
 20
273041.89
 30
0.00
 11
290212.11
 21
273040.78
 31
0.00
 12
290210.21
 22
273039.88
 32
0.00
 13
290210.21
 23
273039.88
 33
0.00
 70
15
  0
3DFACE
  8
HAU
 10
290210.21
 20
273039.88
 30
0.00
 11
290209.69
 21
273040.99
 31
0.00
 12
290211.58
 22
273041.89
 32
0.00
 13
290211.58
 23
273041.89
 33
0.00
 70
15
  0
POLYLINE
  8
HAU
 66
1
 70
9
  0
VERTEX
  8
HAU
 10
290209.48
 20
273046.21
 30
0.00
 70
32
  0
VERTEX
  8
HAU
 10
290211.07
 20
273042.87
 30
0.00
 70
32
  0
VERTEX
  8
HAU
 10
290209.25
 20
273042.00
 30
0.00
 70
32
  0
VERTEX
  8
HAU
 10
290207.66
 20
273045.34
 30
0.00
 70
32
  0
SEQEND
  8
HAU
  0
3DFACE
  8
HAU
 10
290207.66
 20
273045.34
 30
0.00
 11
290209.48
 21
273046.21
 31
0.00
 12
290209.48
 22
273046.21
 32
0.00
 13
290207.66
 23
273045.34
 33
0.00
  0
3DFACE
  8
HAU
 10
290209.48
 20
273046.21
 30
0.00
 11
290211.07
 21
273042.87
 31
0.00
 12
290211.07
 22
273042.87
 32
0.00
 13
290209.48
 23
273046.21
 33
0.00
  0
3DFACE
  8
HAU
 10
290211.07
 20
273042.87
 30
0.00
 11
290209.25
 21
273042.00
 31
0.00
 12
290209.25
 22
273042.00
 32
0.00
 13
290211.07
 23
273042.87
 33
0.00
  0
3DFACE
  8
HAU
 10
290209.25
 20
273042.00
 30
0.00
 11
290207.66
 21
273045.34
 31
0.00
 12
290207.66
 22
273045.34
 32
0.00
 13
290209.25
 23
273042.00
 33
0.00
  0
3DFACE
  8
HAU
 10
290209.48
 20
273046.21
 30
0.00
 11
290211.07
 21
273042.87
 31
0.00
 12
290209.25
 22
273042.00
 32
0.00
 13
290209.25
 23
273042.00
 33
0.00
 70
15
  0
3DFACE
  8
HAU
 10
290209.25
 20
273042.00
 30
0.00
 11
290207.66
 21
273045.34
 31
0.00
 12
290209.48
 22
273046.21
 32
0.00
 13
290209.48
 23
273046.21
 33
0.00
 70
15
  0
POLYLINE
  8
SCH
 66
1
 70
8
  0
VERTEX
  8
SCH
 10
290213.60
 20
273040.38
 30
0.00
 70
32
  0
VERTEX
  8
SCH
 10
290204.68
 20
273036.13
 30
0.00
 70
32
  0
VERTEX
  8
SCH
 10
290194.24
 20
273058.06
 30
0.00
 70
32
  0
VERTEX
  8
SCH
 10
290203.16
 20
273062.30
 30
0.00
 70
32
  0
VERTEX
  8
SCH
 10
290213.60
 20
273040.38
 30
0.00
 70
32
  0
SEQEND
  8
SCH
  0
3DFACE
  8
SCH
 10
290213.60
 20
273040.38
 30
0.00
 11
290204.68
 21
273036.13
 31
0.00
 12
290204.68
 22
273036.13
 32
0.00
 13
290213.60
 23
273040.38
 33
0.00
  0
3DFACE
  8
SCH
 10
290204.68
 20
273036.13
 30
0.00
 11
290194.24
 21
273058.06
 31
0.00
 12
290194.24
 22
273058.06
 32
0.00
 13
290204.68
 23
273036.13
 33
0.00
  0
3DFACE
  8
SCH
 10
290194.24
 20
273058.06
 30
0.00
 11
290203.16
 21
273062.30
 31
0.00
 12
290203.16
 22
273062.30
 32
0.00
 13
290194.24
 23
273058.06
 33
0.00
  0
3DFACE
  8
SCH
 10
290203.16
 20
273062.30
 30
0.00
 11
290213.60
 21
273040.38
 31
0.00
 12
290213.60
 22
273040.38
 32
0.00
 13
290203.16
 23
273062.30
 33
0.00
  0
POLYLINE
  8
DBAREA
 66
1
 70
16
 71
0
 72
0
  0
SEQEND
  8
DBAREA
  0
ENDSEC
  0
EOF
