  0
SECTION
  2
ENTITIES
  0
POINT
  8
QU_0
 10
554387.34
 20
6745387.13
 30
1.60
  0
POINT
  8
QU_1
 10
554383.07
 20
6745380.98
 30
1.60
  0
POINT
  8
QU_2
 10
554379.93
 20
6745376.44
 30
1.60
  0
POINT
  8
QU_3
 10
554375.66
 20
6745370.29
 30
1.60
  0
POINT
  8
QU_4
 10
554372.51
 20
6745365.75
 30
1.60
  0
POINT
  8
QU_5
 10
554368.24
 20
6745359.60
 30
1.60
  0
POINT
  8
QU_6
 10
554365.09
 20
6745355.05
 30
1.60
  0
POINT
  8
QU_7
 10
554360.82
 20
6745348.90
 30
1.60
  0
POINT
  8
QU_8
 10
554357.68
 20
6745344.36
 30
1.60
  0
POINT
  8
QU_9
 10
554353.41
 20
6745338.21
 30
1.60
  0
POINT
  8
QU_10
 10
554350.26
 20
6745333.67
 30
1.60
  0
POINT
  8
QU_11
 10
554346.00
 20
6745327.52
 30
1.60
  0
POINT
  8
QU_12
 10
554398.84
 20
6745379.15
 30
1.60
  0
POINT
  8
QU_13
 10
554394.58
 20
6745373.00
 30
1.60
  0
POINT
  8
QU_14
 10
554391.43
 20
6745368.46
 30
1.60
  0
POINT
  8
QU_15
 10
554387.17
 20
6745362.30
 30
1.60
  0
POINT
  8
QU_16
 10
554384.02
 20
6745357.76
 30
1.60
  0
POINT
  8
QU_17
 10
554379.75
 20
6745351.62
 30
1.60
  0
POINT
  8
QU_18
 10
554376.60
 20
6745347.08
 30
1.60
  0
POINT
  8
QU_19
 10
554372.33
 20
6745340.92
 30
1.60
  0
POINT
  8
QU_20
 10
554369.19
 20
6745336.38
 30
1.60
  0
POINT
  8
QU_21
 10
554364.92
 20
6745330.23
 30
1.60
  0
POINT
  8
QU_22
 10
554361.77
 20
6745325.69
 30
1.60
  0
POINT
  8
QU_23
 10
554357.51
 20
6745319.54
 30
1.60
  0
POINT
  8
QU_24
 10
554395.66
 20
6745381.37
 30
1.60
  0
POINT
  8
QU_25
 10
554391.39
 20
6745375.22
 30
1.60
  0
POINT
  8
QU_26
 10
554388.24
 20
6745370.68
 30
1.60
  0
POINT
  8
QU_27
 10
554383.97
 20
6745364.53
 30
1.60
  0
POINT
  8
QU_28
 10
554380.82
 20
6745359.98
 30
1.60
  0
POINT
  8
QU_29
 10
554376.55
 20
6745353.83
 30
1.60
  0
POINT
  8
QU_30
 10
554373.41
 20
6745349.29
 30
1.60
  0
POINT
  8
QU_31
 10
554369.15
 20
6745343.13
 30
1.60
  0
POINT
  8
QU_32
 10
554365.99
 20
6745338.60
 30
1.60
  0
POINT
  8
QU_33
 10
554361.72
 20
6745332.45
 30
1.60
  0
POINT
  8
QU_34
 10
554358.57
 20
6745327.90
 30
1.60
  0
POINT
  8
QU_35
 10
554354.31
 20
6745321.75
 30
1.60
  0
ENDSEC
  0
EOF
