  0
SECTION
  2
ENTITIES
  0
POLYLINE
  8
HAU
 66
1
 70
9
  0
VERTEX
  8
HAU
 10
554383.02
 20
6745391.61
 30
109.41
 70
32
  0
VERTEX
  8
HAU
 10
554381.63
 20
6745389.61
 30
109.41
 70
32
  0
VERTEX
  8
HAU
 10
554391.66
 20
6745382.65
 30
109.41
 70
32
  0
VERTEX
  8
HAU
 10
554393.05
 20
6745384.66
 30
109.41
 70
32
  0
SEQEND
  8
HAU
  0
POLYLINE
  8
HAU
 66
1
 70
9
  0
VERTEX
  8
HAU
 10
554378.76
 20
6745385.46
 30
109.43
 70
32
  0
VERTEX
  8
HAU
 10
554377.37
 20
6745383.46
 30
109.43
 70
32
  0
VERTEX
  8
HAU
 10
554387.39
 20
6745376.50
 30
109.43
 70
32
  0
VERTEX
  8
HAU
 10
554388.78
 20
6745378.51
 30
109.43
 70
32
  0
SEQEND
  8
HAU
  0
POLYLINE
  8
HAU
 66
1
 70
9
  0
VERTEX
  8
HAU
 10
554375.61
 20
6745380.92
 30
109.45
 70
32
  0
VERTEX
  8
HAU
 10
554374.22
 20
6745378.91
 30
109.45
 70
32
  0
VERTEX
  8
HAU
 10
554384.24
 20
6745371.96
 30
109.45
 70
32
  0
VERTEX
  8
HAU
 10
554385.63
 20
6745373.96
 30
109.45
 70
32
  0
SEQEND
  8
HAU
  0
POLYLINE
  8
HAU
 66
1
 70
9
  0
VERTEX
  8
HAU
 10
554371.34
 20
6745374.77
 30
109.43
 70
32
  0
VERTEX
  8
HAU
 10
554369.95
 20
6745372.76
 30
109.43
 70
32
  0
VERTEX
  8
HAU
 10
554379.98
 20
6745365.81
 30
109.43
 70
32
  0
VERTEX
  8
HAU
 10
554381.36
 20
6745367.81
 30
109.43
 70
32
  0
SEQEND
  8
HAU
  0
POLYLINE
  8
HAU
 66
1
 70
9
  0
VERTEX
  8
HAU
 10
554368.19
 20
6745370.23
 30
109.41
 70
32
  0
VERTEX
  8
HAU
 10
554366.80
 20
6745368.22
 30
109.41
 70
32
  0
VERTEX
  8
HAU
 10
554376.83
 20
6745361.27
 30
109.41
 70
32
  0
VERTEX
  8
HAU
 10
554378.22
 20
6745363.27
 30
109.41
 70
32
  0
SEQEND
  8
HAU
  0
POLYLINE
  8
HAU
 66
1
 70
9
  0
VERTEX
  8
HAU
 10
554363.92
 20
6745364.07
 30
109.39
 70
32
  0
VERTEX
  8
HAU
 10
554362.54
 20
6745362.07
 30
109.39
 70
32
  0
VERTEX
  8
HAU
 10
554372.56
 20
6745355.12
 30
109.39
 70
32
  0
VERTEX
  8
HAU
 10
554373.95
 20
6745357.12
 30
109.39
 70
32
  0
SEQEND
  8
HAU
  0
POLYLINE
  8
HAU
 66
1
 70
9
  0
VERTEX
  8
HAU
 10
554360.77
 20
6745359.53
 30
109.36
 70
32
  0
VERTEX
  8
HAU
 10
554359.39
 20
6745357.53
 30
109.36
 70
32
  0
VERTEX
  8
HAU
 10
554369.41
 20
6745350.58
 30
109.36
 70
32
  0
VERTEX
  8
HAU
 10
554370.80
 20
6745352.58
 30
109.36
 70
32
  0
SEQEND
  8
HAU
  0
POLYLINE
  8
HAU
 66
1
 70
9
  0
VERTEX
  8
HAU
 10
554356.51
 20
6745353.38
 30
109.32
 70
32
  0
VERTEX
  8
HAU
 10
554355.12
 20
6745351.38
 30
109.32
 70
32
  0
VERTEX
  8
HAU
 10
554365.14
 20
6745344.43
 30
109.32
 70
32
  0
VERTEX
  8
HAU
 10
554366.53
 20
6745346.43
 30
109.32
 70
32
  0
SEQEND
  8
HAU
  0
POLYLINE
  8
HAU
 66
1
 70
9
  0
VERTEX
  8
HAU
 10
554353.36
 20
6745348.84
 30
109.30
 70
32
  0
VERTEX
  8
HAU
 10
554351.97
 20
6745346.84
 30
109.30
 70
32
  0
VERTEX
  8
HAU
 10
554361.99
 20
6745339.88
 30
109.30
 70
32
  0
VERTEX
  8
HAU
 10
554363.38
 20
6745341.89
 30
109.30
 70
32
  0
SEQEND
  8
HAU
  0
POLYLINE
  8
HAU
 66
1
 70
9
  0
VERTEX
  8
HAU
 10
554349.09
 20
6745342.69
 30
109.30
 70
32
  0
VERTEX
  8
HAU
 10
554347.70
 20
6745340.69
 30
109.30
 70
32
  0
VERTEX
  8
HAU
 10
554357.73
 20
6745333.73
 30
109.30
 70
32
  0
VERTEX
  8
HAU
 10
554359.12
 20
6745335.74
 30
109.30
 70
32
  0
SEQEND
  8
HAU
  0
POLYLINE
  8
HAU
 66
1
 70
9
  0
VERTEX
  8
HAU
 10
554345.94
 20
6745338.15
 30
109.29
 70
32
  0
VERTEX
  8
HAU
 10
554344.55
 20
6745336.14
 30
109.29
 70
32
  0
VERTEX
  8
HAU
 10
554354.58
 20
6745329.19
 30
109.29
 70
32
  0
VERTEX
  8
HAU
 10
554355.97
 20
6745331.20
 30
109.29
 70
32
  0
SEQEND
  8
HAU
  0
POLYLINE
  8
HAU
 66
1
 70
9
  0
VERTEX
  8
HAU
 10
554341.68
 20
6745332.00
 30
109.26
 70
32
  0
VERTEX
  8
HAU
 10
554340.29
 20
6745329.99
 30
109.26
 70
32
  0
VERTEX
  8
HAU
 10
554350.31
 20
6745323.04
 30
109.26
 70
32
  0
VERTEX
  8
HAU
 10
554351.70
 20
6745325.04
 30
109.26
 70
32
  0
SEQEND
  8
HAU
  0
POLYLINE
  8
HAU
 66
1
 70
9
  0
VERTEX
  8
HAU
 10
554396.35
 20
6745379.06
 30
109.17
 70
32
  0
VERTEX
  8
HAU
 10
554399.64
 20
6745376.78
 30
109.17
 70
32
  0
VERTEX
  8
HAU
 10
554401.34
 20
6745379.24
 30
109.17
 70
32
  0
VERTEX
  8
HAU
 10
554398.05
 20
6745381.52
 30
109.17
 70
32
  0
SEQEND
  8
HAU
  0
POLYLINE
  8
HAU
 66
1
 70
9
  0
VERTEX
  8
HAU
 10
554392.09
 20
6745372.91
 30
109.17
 70
32
  0
VERTEX
  8
HAU
 10
554395.37
 20
6745370.63
 30
109.17
 70
32
  0
VERTEX
  8
HAU
 10
554397.07
 20
6745373.09
 30
109.17
 70
32
  0
VERTEX
  8
HAU
 10
554393.79
 20
6745375.37
 30
109.17
 70
32
  0
SEQEND
  8
HAU
  0
POLYLINE
  8
HAU
 66
1
 70
9
  0
VERTEX
  8
HAU
 10
554388.94
 20
6745368.37
 30
109.14
 70
32
  0
VERTEX
  8
HAU
 10
554392.22
 20
6745366.09
 30
109.14
 70
32
  0
VERTEX
  8
HAU
 10
554393.92
 20
6745368.55
 30
109.14
 70
32
  0
VERTEX
  8
HAU
 10
554390.64
 20
6745370.82
 30
109.14
 70
32
  0
SEQEND
  8
HAU
  0
POLYLINE
  8
HAU
 66
1
 70
9
  0
VERTEX
  8
HAU
 10
554384.67
 20
6745362.22
 30
109.10
 70
32
  0
VERTEX
  8
HAU
 10
554387.96
 20
6745359.94
 30
109.10
 70
32
  0
VERTEX
  8
HAU
 10
554389.66
 20
6745362.39
 30
109.10
 70
32
  0
VERTEX
  8
HAU
 10
554386.37
 20
6745364.67
 30
109.10
 70
32
  0
SEQEND
  8
HAU
  0
POLYLINE
  8
HAU
 66
1
 70
9
  0
VERTEX
  8
HAU
 10
554381.52
 20
6745357.68
 30
109.07
 70
32
  0
VERTEX
  8
HAU
 10
554384.81
 20
6745355.40
 30
109.07
 70
32
  0
VERTEX
  8
HAU
 10
554386.51
 20
6745357.85
 30
109.07
 70
32
  0
VERTEX
  8
HAU
 10
554383.22
 20
6745360.13
 30
109.07
 70
32
  0
SEQEND
  8
HAU
  0
POLYLINE
  8
HAU
 66
1
 70
9
  0
VERTEX
  8
HAU
 10
554377.26
 20
6745351.53
 30
109.03
 70
32
  0
VERTEX
  8
HAU
 10
554380.54
 20
6745349.25
 30
109.03
 70
32
  0
VERTEX
  8
HAU
 10
554382.24
 20
6745351.70
 30
109.03
 70
32
  0
VERTEX
  8
HAU
 10
554378.96
 20
6745353.98
 30
109.03
 70
32
  0
SEQEND
  8
HAU
  0
POLYLINE
  8
HAU
 66
1
 70
9
  0
VERTEX
  8
HAU
 10
554374.11
 20
6745346.99
 30
109.02
 70
32
  0
VERTEX
  8
HAU
 10
554377.39
 20
6745344.71
 30
109.02
 70
32
  0
VERTEX
  8
HAU
 10
554379.09
 20
6745347.16
 30
109.02
 70
32
  0
VERTEX
  8
HAU
 10
554375.81
 20
6745349.44
 30
109.02
 70
32
  0
SEQEND
  8
HAU
  0
POLYLINE
  8
HAU
 66
1
 70
9
  0
VERTEX
  8
HAU
 10
554369.84
 20
6745340.84
 30
109.04
 70
32
  0
VERTEX
  8
HAU
 10
554373.13
 20
6745338.56
 30
109.04
 70
32
  0
VERTEX
  8
HAU
 10
554374.83
 20
6745341.01
 30
109.04
 70
32
  0
VERTEX
  8
HAU
 10
554371.54
 20
6745343.29
 30
109.04
 70
32
  0
SEQEND
  8
HAU
  0
POLYLINE
  8
HAU
 66
1
 70
9
  0
VERTEX
  8
HAU
 10
554366.69
 20
6745336.29
 30
109.05
 70
32
  0
VERTEX
  8
HAU
 10
554369.98
 20
6745334.01
 30
109.05
 70
32
  0
VERTEX
  8
HAU
 10
554371.68
 20
6745336.47
 30
109.05
 70
32
  0
VERTEX
  8
HAU
 10
554368.39
 20
6745338.75
 30
109.05
 70
32
  0
SEQEND
  8
HAU
  0
POLYLINE
  8
HAU
 66
1
 70
9
  0
VERTEX
  8
HAU
 10
554362.42
 20
6745330.14
 30
109.07
 70
32
  0
VERTEX
  8
HAU
 10
554365.71
 20
6745327.86
 30
109.07
 70
32
  0
VERTEX
  8
HAU
 10
554367.41
 20
6745330.32
 30
109.07
 70
32
  0
VERTEX
  8
HAU
 10
554364.13
 20
6745332.60
 30
109.07
 70
32
  0
SEQEND
  8
HAU
  0
POLYLINE
  8
HAU
 66
1
 70
9
  0
VERTEX
  8
HAU
 10
554359.27
 20
6745325.60
 30
109.09
 70
32
  0
VERTEX
  8
HAU
 10
554362.56
 20
6745323.32
 30
109.09
 70
32
  0
VERTEX
  8
HAU
 10
554364.26
 20
6745325.78
 30
109.09
 70
32
  0
VERTEX
  8
HAU
 10
554360.98
 20
6745328.06
 30
109.09
 70
32
  0
SEQEND
  8
HAU
  0
POLYLINE
  8
HAU
 66
1
 70
9
  0
VERTEX
  8
HAU
 10
554355.01
 20
6745319.45
 30
109.05
 70
32
  0
VERTEX
  8
HAU
 10
554358.30
 20
6745317.17
 30
109.05
 70
32
  0
VERTEX
  8
HAU
 10
554360.00
 20
6745319.62
 30
109.05
 70
32
  0
VERTEX
  8
HAU
 10
554356.71
 20
6745321.90
 30
109.05
 70
32
  0
SEQEND
  8
HAU
  0
POLYLINE
  8
HAU
 66
1
 70
9
  0
VERTEX
  8
HAU
 10
554394.71
 20
6745383.25
 30
109.11
 70
32
  0
VERTEX
  8
HAU
 10
554397.75
 20
6745381.14
 30
109.11
 70
32
  0
VERTEX
  8
HAU
 10
554396.60
 20
6745379.48
 30
109.11
 70
32
  0
VERTEX
  8
HAU
 10
554393.56
 20
6745381.59
 30
109.11
 70
32
  0
SEQEND
  8
HAU
  0
POLYLINE
  8
HAU
 66
1
 70
9
  0
VERTEX
  8
HAU
 10
554390.44
 20
6745377.10
 30
109.13
 70
32
  0
VERTEX
  8
HAU
 10
554393.48
 20
6745374.99
 30
109.13
 70
32
  0
VERTEX
  8
HAU
 10
554392.33
 20
6745373.33
 30
109.13
 70
32
  0
VERTEX
  8
HAU
 10
554389.29
 20
6745375.44
 30
109.13
 70
32
  0
SEQEND
  8
HAU
  0
POLYLINE
  8
HAU
 66
1
 70
9
  0
VERTEX
  8
HAU
 10
554387.29
 20
6745372.56
 30
109.12
 70
32
  0
VERTEX
  8
HAU
 10
554390.33
 20
6745370.45
 30
109.12
 70
32
  0
VERTEX
  8
HAU
 10
554389.18
 20
6745368.79
 30
109.12
 70
32
  0
VERTEX
  8
HAU
 10
554386.14
 20
6745370.90
 30
109.12
 70
32
  0
SEQEND
  8
HAU
  0
POLYLINE
  8
HAU
 66
1
 70
9
  0
VERTEX
  8
HAU
 10
554383.03
 20
6745366.41
 30
109.08
 70
32
  0
VERTEX
  8
HAU
 10
554386.07
 20
6745364.30
 30
109.08
 70
32
  0
VERTEX
  8
HAU
 10
554384.92
 20
6745362.64
 30
109.08
 70
32
  0
VERTEX
  8
HAU
 10
554381.88
 20
6745364.75
 30
109.08
 70
32
  0
SEQEND
  8
HAU
  0
POLYLINE
  8
HAU
 66
1
 70
9
  0
VERTEX
  8
HAU
 10
554379.88
 20
6745361.86
 30
109.05
 70
32
  0
VERTEX
  8
HAU
 10
554382.92
 20
6745359.76
 30
109.05
 70
32
  0
VERTEX
  8
HAU
 10
554381.77
 20
6745358.10
 30
109.05
 70
32
  0
VERTEX
  8
HAU
 10
554378.73
 20
6745360.20
 30
109.05
 70
32
  0
SEQEND
  8
HAU
  0
POLYLINE
  8
HAU
 66
1
 70
9
  0
VERTEX
  8
HAU
 10
554375.61
 20
6745355.71
 30
109.01
 70
32
  0
VERTEX
  8
HAU
 10
554378.65
 20
6745353.61
 30
109.01
 70
32
  0
VERTEX
  8
HAU
 10
554377.50
 20
6745351.95
 30
109.01
 70
32
  0
VERTEX
  8
HAU
 10
554374.46
 20
6745354.05
 30
109.01
 70
32
  0
SEQEND
  8
HAU
  0
POLYLINE
  8
HAU
 66
1
 70
9
  0
VERTEX
  8
HAU
 10
554372.46
 20
6745351.17
 30
108.97
 70
32
  0
VERTEX
  8
HAU
 10
554375.50
 20
6745349.06
 30
108.97
 70
32
  0
VERTEX
  8
HAU
 10
554374.35
 20
6745347.40
 30
108.97
 70
32
  0
VERTEX
  8
HAU
 10
554371.31
 20
6745349.51
 30
108.97
 70
32
  0
SEQEND
  8
HAU
  0
POLYLINE
  8
HAU
 66
1
 70
9
  0
VERTEX
  8
HAU
 10
554368.20
 20
6745345.02
 30
108.98
 70
32
  0
VERTEX
  8
HAU
 10
554371.24
 20
6745342.91
 30
108.98
 70
32
  0
VERTEX
  8
HAU
 10
554370.09
 20
6745341.25
 30
108.98
 70
32
  0
VERTEX
  8
HAU
 10
554367.05
 20
6745343.36
 30
108.98
 70
32
  0
SEQEND
  8
HAU
  0
POLYLINE
  8
HAU
 66
1
 70
9
  0
VERTEX
  8
HAU
 10
554365.05
 20
6745340.48
 30
109.00
 70
32
  0
VERTEX
  8
HAU
 10
554368.09
 20
6745338.37
 30
109.00
 70
32
  0
VERTEX
  8
HAU
 10
554366.94
 20
6745336.71
 30
109.00
 70
32
  0
VERTEX
  8
HAU
 10
554363.90
 20
6745338.82
 30
109.00
 70
32
  0
SEQEND
  8
HAU
  0
POLYLINE
  8
HAU
 66
1
 70
9
  0
VERTEX
  8
HAU
 10
554360.78
 20
6745334.33
 30
109.01
 70
32
  0
VERTEX
  8
HAU
 10
554363.82
 20
6745332.22
 30
109.01
 70
32
  0
VERTEX
  8
HAU
 10
554362.67
 20
6745330.56
 30
109.01
 70
32
  0
VERTEX
  8
HAU
 10
554359.63
 20
6745332.67
 30
109.01
 70
32
  0
SEQEND
  8
HAU
  0
POLYLINE
  8
HAU
 66
1
 70
9
  0
VERTEX
  8
HAU
 10
554357.63
 20
6745329.79
 30
109.03
 70
32
  0
VERTEX
  8
HAU
 10
554360.67
 20
6745327.68
 30
109.03
 70
32
  0
VERTEX
  8
HAU
 10
554359.52
 20
6745326.02
 30
109.03
 70
32
  0
VERTEX
  8
HAU
 10
554356.48
 20
6745328.13
 30
109.03
 70
32
  0
SEQEND
  8
HAU
  0
POLYLINE
  8
HAU
 66
1
 70
9
  0
VERTEX
  8
HAU
 10
554353.37
 20
6745323.64
 30
109.03
 70
32
  0
VERTEX
  8
HAU
 10
554356.41
 20
6745321.53
 30
109.03
 70
32
  0
VERTEX
  8
HAU
 10
554355.26
 20
6745319.87
 30
109.03
 70
32
  0
VERTEX
  8
HAU
 10
554352.21
 20
6745321.98
 30
109.03
 70
32
  0
SEQEND
  8
HAU
  0
ENDSEC
  0
EOF
